REM DIRINDEX 1\2,1\3\7,1\3\8,1\4\9,1\4\10,1\4\11,1\5\12,1\5\13,1\5\14,1\6\15,1\6\16,1\6\17
REM DIRNAME "folder01","folder02","folder03","folder04","folder05","folder06","folder07","folder08","folder09","folder10","folder11","folder12","folder13","folder14","folder15","folder16","folder17"
TITLE ""
FILE "2Q_t_0218-0235.mp3" MP3
  TRACK 01 AUDIO
    TITLE "7:cjc174_2175"
    INDEX 01 00:00:00
  TRACK 02 AUDIO
    TITLE "0:"
    INDEX 01 00:01:16
  TRACK 03 AUDIO
    TITLE "8:cjc174_2176"
    INDEX 01 00:01:61
  TRACK 04 AUDIO
    TITLE "0:"
    INDEX 01 00:03:30
  TRACK 05 AUDIO
    TITLE "7:cjc174_2177"
    INDEX 01 00:03:73
  TRACK 06 AUDIO
    TITLE "0:"
    INDEX 01 00:05:10
  TRACK 07 AUDIO
    TITLE "8:cjc174_2178"
    INDEX 01 00:05:62
  TRACK 08 AUDIO
    TITLE "0:"
    INDEX 01 00:08:45
  TRACK 09 AUDIO
    TITLE "7:cjc174_2179"
    INDEX 01 00:09:13
  TRACK 10 AUDIO
    TITLE "0:"
    INDEX 01 00:10:24
  TRACK 11 AUDIO
    TITLE "8:cjc174_2180"
    INDEX 01 00:10:69
  TRACK 12 AUDIO
    TITLE "0:"
    INDEX 01 00:14:55
  TRACK 13 AUDIO
    TITLE "7:cjc174_2181"
    INDEX 01 00:15:24
  TRACK 14 AUDIO
    TITLE "0:"
    INDEX 01 00:16:29
  TRACK 15 AUDIO
    TITLE "8:cjc174_2182"
    INDEX 01 00:17:01
  TRACK 16 AUDIO
    TITLE "0:"
    INDEX 01 00:19:68
  TRACK 17 AUDIO
    TITLE "7:cjc174_2183"
    INDEX 01 00:20:38
  TRACK 18 AUDIO
    TITLE "0:"
    INDEX 01 00:21:34
  TRACK 19 AUDIO
    TITLE "8:cjc174_2184"
    INDEX 01 00:22:08
  TRACK 20 AUDIO
    TITLE "0:"
    INDEX 01 00:25:73
  TRACK 21 AUDIO
    TITLE "7:cjc174_2185"
    INDEX 01 00:26:41
  TRACK 22 AUDIO
    TITLE "0:"
    INDEX 01 00:27:56
  TRACK 23 AUDIO
    TITLE "8:cjc174_2186"
    INDEX 01 00:28:28
  TRACK 24 AUDIO
    TITLE "0:"
    INDEX 01 00:30:58
  TRACK 25 AUDIO
    TITLE "7:cjc174_2187"
    INDEX 01 00:31:28
  TRACK 26 AUDIO
    TITLE "0:"
    INDEX 01 00:32:44
  TRACK 27 AUDIO
    TITLE "8:cjc174_2188"
    INDEX 01 00:33:18
  TRACK 28 AUDIO
    TITLE "0:"
    INDEX 01 00:35:54
  TRACK 29 AUDIO
    TITLE "7:cjc174_2189"
    INDEX 01 00:36:24
  TRACK 30 AUDIO
    TITLE "0:"
    INDEX 01 00:37:47
  TRACK 31 AUDIO
    TITLE "8:cjc174_2190"
    INDEX 01 00:38:19
  TRACK 32 AUDIO
    TITLE "0:"
    INDEX 01 00:40:61
  TRACK 33 AUDIO
    TITLE "7:cjc174_2191"
    INDEX 01 00:41:31
  TRACK 34 AUDIO
    TITLE "0:"
    INDEX 01 00:42:46
  TRACK 35 AUDIO
    TITLE "8:cjc174_2192"
    INDEX 01 00:43:20
  TRACK 36 AUDIO
    TITLE "0:"
    INDEX 01 00:47:35
  TRACK 37 AUDIO
    TITLE "7:cjc174_2193"
    INDEX 01 00:48:05
  TRACK 38 AUDIO
    TITLE "0:"
    INDEX 01 00:49:07
  TRACK 39 AUDIO
    TITLE "8:cjc174_2194"
    INDEX 01 00:49:62
  TRACK 40 AUDIO
    TITLE "0:"
    INDEX 01 00:52:15
  TRACK 41 AUDIO
    TITLE "7:cjc174_2195"
    INDEX 01 00:52:58
  TRACK 42 AUDIO
    TITLE "0:"
    INDEX 01 00:54:04
  TRACK 43 AUDIO
    TITLE "8:cjc174_2196"
    INDEX 01 00:54:51
  TRACK 44 AUDIO
    TITLE "0:"
    INDEX 01 00:57:28
  TRACK 45 AUDIO
    TITLE "7:cjc174_2197"
    INDEX 01 00:57:71
  TRACK 46 AUDIO
    TITLE "0:"
    INDEX 01 00:59:03
  TRACK 47 AUDIO
    TITLE "8:cjc174_2198"
    INDEX 01 00:59:48
  TRACK 48 AUDIO
    TITLE "0:"
    INDEX 01 01:02:39
  TRACK 49 AUDIO
    TITLE "7:cjc174_2199"
    INDEX 01 01:03:09
  TRACK 50 AUDIO
    TITLE "0:"
    INDEX 01 01:04:22
  TRACK 51 AUDIO
    TITLE "8:cjc174_2200"
    INDEX 01 01:04:67
  TRACK 52 AUDIO
    TITLE "0:"
    INDEX 01 01:07:32
  TRACK 53 AUDIO
    TITLE "7:cjc174_2201"
    INDEX 01 01:08:02
  TRACK 54 AUDIO
    TITLE "0:"
    INDEX 01 01:09:31
  TRACK 55 AUDIO
    TITLE "8:cjc174_2202"
    INDEX 01 01:10:03
  TRACK 56 AUDIO
    TITLE "0:"
    INDEX 01 01:14:18
  TRACK 57 AUDIO
    TITLE "7:cjc174_2203"
    INDEX 01 01:14:62
  TRACK 58 AUDIO
    TITLE "0:"
    INDEX 01 01:15:59
  TRACK 59 AUDIO
    TITLE "8:cjc174_2204"
    INDEX 01 01:16:29
  TRACK 60 AUDIO
    TITLE "0:"
    INDEX 01 01:18:59
  TRACK 61 AUDIO
    TITLE "7:cjc174_2205"
    INDEX 01 01:19:27
  TRACK 62 AUDIO
    TITLE "0:"
    INDEX 01 01:20:45
  TRACK 63 AUDIO
    TITLE "8:cjc174_2206"
    INDEX 01 01:21:19
  TRACK 64 AUDIO
    TITLE "0:"
    INDEX 01 01:24:15
  TRACK 65 AUDIO
    TITLE "7:cjc174_2207"
    INDEX 01 01:24:62
  TRACK 66 AUDIO
    TITLE "0:"
    INDEX 01 01:26:04
  TRACK 67 AUDIO
    TITLE "8:cjc174_2208"
    INDEX 01 01:26:53
  TRACK 68 AUDIO
    TITLE "0:"
    INDEX 01 01:29:47
  TRACK 69 AUDIO
    TITLE "7:cjc174_2209"
    INDEX 01 01:30:16
  TRACK 70 AUDIO
    TITLE "0:"
    INDEX 01 01:31:37
  TRACK 71 AUDIO
    TITLE "8:cjc174_2210"
    INDEX 01 01:32:07
  TRACK 72 AUDIO
    TITLE "0:"
    INDEX 01 01:34:35
